<svg width="283" height="283" viewBox="0 0 283 283" fill="none" xmlns="http://www.w3.org/2000/svg">
<rect x="2.82526" y="147.814" width="195.996" height="196.002" rx="97.9979" transform="rotate(-47.7107 2.82526 147.814)" stroke="#0B0A0A" stroke-width="4" stroke-dasharray="8 4"/>
<path d="M194.505 179.188L205.265 188.975L202.664 191.834L194.169 189.5L197.295 197.737L194.694 200.596L183.934 190.809L185.85 188.703L193.766 195.903L190.016 185.667L200.578 188.476L192.631 181.248L194.505 179.188Z" fill="#0B0A0A"/>
<path d="M178.238 194.81L185.447 207.443L175.737 212.984L174.44 210.71L181.532 206.663L179.885 203.775L175.21 206.442L173.954 204.24L178.628 201.573L176.919 198.577L169.754 202.666L168.456 200.392L178.238 194.81Z" fill="#0B0A0A"/>
<path d="M161.855 203.16L164.807 217.403L161.023 218.187L155.522 211.306L153.21 219.807L149.425 220.591L146.473 206.349L149.26 205.771L151.432 216.25L154.415 205.763L161.309 214.245L159.128 203.726L161.855 203.16Z" fill="#0B0A0A"/>
<path d="M133.853 205.384C134.927 205.502 135.905 205.798 136.787 206.272C137.667 206.759 138.421 207.378 139.048 208.13C139.661 208.895 140.118 209.746 140.419 210.686C140.704 211.637 140.789 212.636 140.673 213.682C140.558 214.729 140.258 215.678 139.774 216.531C139.274 217.395 138.643 218.127 137.881 218.726C137.103 219.337 136.232 219.778 135.268 220.048C134.303 220.332 133.284 220.415 132.21 220.296C131.136 220.178 130.159 219.875 129.279 219.388C128.383 218.913 127.629 218.293 127.017 217.529C126.389 216.777 125.932 215.925 125.647 214.974C125.36 214.036 125.274 213.044 125.389 211.998C125.504 210.951 125.805 209.995 126.291 209.129C126.775 208.276 127.406 207.544 128.184 206.933C128.947 206.334 129.818 205.894 130.797 205.611C131.76 205.341 132.779 205.265 133.853 205.384ZM133.551 208.131C132.89 208.058 132.271 208.108 131.694 208.282C131.116 208.469 130.598 208.746 130.139 209.114C129.679 209.495 129.3 209.962 129.002 210.515C128.704 211.067 128.519 211.674 128.446 212.335C128.372 213.009 128.421 213.642 128.593 214.232C128.763 214.836 129.032 215.368 129.399 215.826C129.766 216.299 130.211 216.682 130.736 216.977C131.259 217.286 131.852 217.476 132.512 217.549C133.16 217.621 133.772 217.563 134.351 217.376C134.927 217.202 135.445 216.925 135.905 216.543C136.364 216.176 136.742 215.716 137.04 215.163C137.336 214.624 137.521 214.025 137.593 213.364C137.668 212.689 137.62 212.05 137.45 211.445C137.279 210.841 137.011 210.303 136.645 209.831C136.278 209.372 135.832 208.989 135.309 208.68C134.784 208.385 134.198 208.202 133.551 208.131Z" fill="#0B0A0A"/>
<path d="M119.426 202.496L113.443 215.753L106.966 212.83C106.069 212.426 105.36 211.893 104.837 211.231C104.297 210.577 103.977 209.855 103.877 209.066C103.765 208.27 103.891 207.468 104.256 206.661C104.638 205.815 105.208 205.175 105.965 204.742C106.723 204.309 107.565 204.111 108.49 204.149L108.024 197.35L111.093 198.735L111.397 204.981L114.389 206.332L116.68 201.256L119.426 202.496ZM113.372 208.586L109.887 207.013C109.269 206.734 108.702 206.676 108.187 206.839C107.66 206.996 107.277 207.34 107.038 207.871C106.799 208.401 106.795 208.916 107.025 209.415C107.243 209.908 107.662 210.295 108.28 210.574L111.765 212.146L113.372 208.586Z" fill="#0B0A0A"/>
<path d="M103.171 194.271L88.9563 201.005L86.3892 198.67L91.7955 183.925L94.2089 186.12L92.7276 189.941L97.17 193.982L100.849 192.16L103.171 194.271ZM94.8564 195.136L91.7821 192.339L89.7119 197.703L94.8564 195.136Z" fill="#0B0A0A"/>
<path d="M87.4804 178.001L74.8471 185.21L71.4589 179.273C70.9714 178.418 70.6901 177.59 70.6149 176.788C70.5398 175.985 70.664 175.252 70.9874 174.589C71.2988 173.933 71.7974 173.409 72.4832 173.018C73.0367 172.702 73.6304 172.555 74.2645 172.576C74.8795 172.592 75.4688 172.758 76.0322 173.074C75.9708 172.296 76.0838 171.585 76.3711 170.943C76.6584 170.301 77.1149 169.801 77.7405 169.444C78.4625 169.032 79.2065 168.854 79.9729 168.912C80.7323 168.957 81.4607 169.227 82.1579 169.722C82.8364 170.212 83.4262 170.897 83.9274 171.775L87.4804 178.001ZM78.5154 179.648L76.7131 176.49C76.3905 175.924 76.0041 175.555 75.554 175.381C75.085 175.202 74.622 175.243 74.1647 175.504C73.7075 175.765 73.4427 176.139 73.3703 176.627C73.2789 177.11 73.3945 177.634 73.7172 178.199L75.5195 181.358L78.5154 179.648ZM83.8214 176.62L81.8749 173.209C81.5317 172.608 81.1126 172.209 80.6179 172.013C80.1111 171.823 79.6111 171.869 79.1178 172.151C78.6125 172.439 78.3184 172.846 78.2357 173.372C78.1408 173.905 78.2651 174.472 78.6083 175.073L80.5547 178.484L83.8214 176.62Z" fill="#0B0A0A"/>
<path d="M78.5247 158.913L64.2821 161.866L63.6705 158.915L75.3088 156.503L73.6935 148.71L76.2979 148.17L78.5247 158.913Z" fill="#0B0A0A"/>
<path d="M75.983 139.153L61.5251 137.56L62.7498 126.448L65.3522 126.735L64.4576 134.852L67.7623 135.216L68.3519 129.867L70.8717 130.144L70.2821 135.494L73.7107 135.872L74.6144 127.672L77.2168 127.959L75.983 139.153Z" fill="#0B0A0A"/>
<path d="M88.0742 102.674L77.3141 92.8872L79.9148 90.0281L88.4097 92.3619L85.2838 84.1254L87.8844 81.2663L98.6445 91.0535L96.729 93.1594L88.8126 85.9588L92.5628 96.1956L82.0007 93.3861L89.9478 100.615L88.0742 102.674Z" fill="#0B0A0A"/>
<path d="M104.341 87.0521L97.1322 74.419L106.842 68.8779L108.139 71.1524L101.047 75.1992L102.695 78.0872L107.369 75.4197L108.625 77.6215L103.951 80.289L105.661 83.2849L112.825 79.1964L114.123 81.4704L104.341 87.0521Z" fill="#0B0A0A"/>
<path d="M120.724 78.7016L117.772 64.4592L121.557 63.6744L127.057 70.5559L129.37 62.0547L133.154 61.2704L136.106 75.5134L133.319 76.0912L131.147 65.6122L128.164 76.0987L121.27 67.6171L123.451 78.1366L120.724 78.7016Z" fill="#0B0A0A"/>
<path d="M148.726 76.4783C147.652 76.3599 146.674 76.0636 145.793 75.5903C144.912 75.1032 144.159 74.4833 143.531 73.7313C142.918 72.9671 142.461 72.1154 142.161 71.1763C141.876 70.2249 141.79 69.2261 141.906 68.1795C142.021 67.1334 142.321 66.1835 142.805 65.3315C143.304 64.4666 143.936 63.7346 144.699 63.1356C145.477 62.5248 146.348 62.084 147.311 61.8142C148.276 61.5301 149.296 61.4473 150.37 61.5656C151.444 61.684 152.42 61.9871 153.301 62.4741C154.196 62.9494 154.95 63.5689 155.563 64.3331C156.191 65.085 156.647 65.9367 156.933 66.8881C157.219 67.8259 157.305 68.8178 157.19 69.8644C157.075 70.9105 156.774 71.8672 156.288 72.7335C155.804 73.5861 155.173 74.3175 154.395 74.9288C153.632 75.5278 152.761 75.9681 151.783 76.2502C150.819 76.5206 149.8 76.5966 148.726 76.4783ZM149.029 73.7312C149.69 73.8037 150.308 73.7539 150.885 73.5801C151.463 73.3932 151.982 73.1158 152.44 72.7482C152.9 72.367 153.279 71.9 153.577 71.3472C153.875 70.7949 154.06 70.1882 154.133 69.5271C154.207 68.8528 154.159 68.2199 153.987 67.6298C153.816 67.0256 153.547 66.4943 153.18 66.0356C152.814 65.5632 152.368 65.1795 151.844 64.8847C151.32 64.5761 150.728 64.3856 150.067 64.3126C149.42 64.2416 148.807 64.2995 148.229 64.4864C147.652 64.6601 147.134 64.9371 146.674 65.3188C146.215 65.6863 145.837 66.1459 145.539 66.6987C145.243 67.2374 145.058 67.8372 144.985 68.4984C144.911 69.1731 144.959 69.8124 145.129 70.4166C145.3 71.0204 145.568 71.559 145.934 72.0314C146.302 72.4897 146.747 72.8733 147.271 73.1818C147.796 73.4767 148.382 73.6597 149.029 73.7312Z" fill="#0B0A0A"/>
<path d="M163.153 79.3664L169.136 66.1085L175.613 69.0321C176.51 69.4365 177.219 69.9694 177.742 70.6307C178.282 71.2847 178.603 72.0067 178.702 72.7965C178.814 73.5921 178.688 74.3934 178.323 75.2018C177.942 76.0476 177.372 76.6873 176.614 77.1206C175.856 77.5533 175.015 77.7512 174.089 77.7137L174.555 84.5118L171.487 83.1272L171.182 76.8806L168.19 75.5302L165.899 80.6059L163.153 79.3664ZM169.207 73.276L172.692 74.8491C173.311 75.1283 173.877 75.186 174.391 75.0234C174.918 74.866 175.302 74.5219 175.541 73.9915C175.781 73.4611 175.785 72.9463 175.554 72.4472C175.336 71.9538 174.918 71.5675 174.299 71.2884L170.814 69.7153L169.207 73.276Z" fill="#0B0A0A"/>
<path d="M179.409 87.5906L193.623 80.8572L196.19 83.1922L190.784 97.9371L188.37 95.742L189.852 91.9209L185.409 87.8801L181.73 89.7018L179.409 87.5906ZM187.723 86.7262L190.797 89.5226L192.867 84.1585L187.723 86.7262Z" fill="#0B0A0A"/>
<path d="M195.099 103.861L207.732 96.6512L211.12 102.589C211.608 103.443 211.889 104.272 211.964 105.075C212.039 105.877 211.915 106.61 211.592 107.273C211.28 107.929 210.782 108.452 210.096 108.844C209.543 109.159 208.949 109.307 208.315 109.286C207.699 109.27 207.111 109.104 206.547 108.787C206.608 109.566 206.496 110.276 206.208 110.919C205.921 111.561 205.464 112.061 204.839 112.418C204.117 112.83 203.373 113.008 202.607 112.95C201.847 112.905 201.118 112.635 200.421 112.139C199.743 111.65 199.153 110.965 198.652 110.087L195.099 103.861ZM204.063 102.214L205.866 105.372C206.189 105.937 206.575 106.307 207.026 106.481C207.494 106.66 207.957 106.619 208.415 106.358C208.872 106.098 209.137 105.723 209.209 105.235C209.3 104.753 209.185 104.228 208.862 103.663L207.06 100.504L204.063 102.214ZM198.758 105.242L200.704 108.653C201.047 109.254 201.466 109.653 201.961 109.849C202.468 110.039 202.968 109.993 203.461 109.711C203.967 109.423 204.26 109.016 204.343 108.49C204.438 107.958 204.314 107.39 203.971 106.789L202.024 103.378L198.758 105.242Z" fill="#0B0A0A"/>
<path d="M204.054 122.949L218.297 119.997L218.908 122.947L207.271 125.359L208.886 133.152L206.281 133.692L204.054 122.949Z" fill="#0B0A0A"/>
<path d="M206.596 142.709L221.054 144.302L219.829 155.414L217.227 155.127L218.122 147.01L214.817 146.646L214.227 151.995L211.708 151.718L212.297 146.368L208.869 145.99L207.964 154.19L205.362 153.903L206.596 142.709Z" fill="#0B0A0A"/>
<g clip-path="url(#clip0_11_15)">
<path d="M147.274 145.932C148.964 144.073 149.803 141.951 149.792 139.564C149.78 137.177 148.925 135.21 147.226 133.665C145.713 132.289 143.992 131.608 142.062 131.624C140.132 131.639 138.54 132.336 137.284 133.717C136.149 134.964 135.588 136.381 135.6 137.968C135.611 139.555 136.201 140.88 137.369 141.942C137.873 142.401 138.455 142.748 139.114 142.984C139.773 143.219 140.47 143.332 141.206 143.323L141.001 138.989C140.876 139.021 140.755 139.02 140.639 138.987C140.523 138.955 140.412 138.89 140.306 138.793C140.014 138.528 139.89 138.197 139.935 137.801C139.98 137.406 140.171 137.022 140.509 136.65C140.992 136.119 141.61 135.881 142.361 135.934C143.113 135.987 143.794 136.292 144.405 136.847C145.228 137.595 145.617 138.568 145.572 139.763C145.527 140.959 145.058 142.048 144.164 143.031C143.03 144.278 141.566 144.874 139.772 144.82C137.979 144.765 136.352 144.073 134.892 142.745C134.123 142.045 133.519 141.229 133.081 140.298C132.643 139.366 132.4 138.393 132.352 137.379L128.018 137.584C128.069 139.182 128.433 140.702 129.11 142.143C129.788 143.584 130.725 144.848 131.919 145.934C134.255 148.059 136.915 149.121 139.9 149.119C142.884 149.117 145.342 148.055 147.274 145.932ZM148.496 165.305L141.648 159.076C138.891 159.333 136.21 159.041 133.605 158.199C131 157.357 128.675 156.007 126.631 154.148C122.649 150.526 120.532 146.054 120.28 140.732C120.028 135.41 121.713 130.758 125.335 126.776C128.353 123.458 132.002 121.406 136.283 120.619C140.564 119.832 144.62 120.479 148.453 122.558L158.498 127.912C159.123 128.238 159.497 128.747 159.618 129.44C159.74 130.133 159.56 130.745 159.077 131.275L156.179 134.461L160.957 138.807C161.833 139.603 162.3 140.597 162.356 141.789C162.412 142.98 162.042 144.013 161.246 144.889L158.348 148.074L161.534 150.972L158.636 154.157L152.266 148.362L158.06 141.992L150.097 134.749L154.008 130.449L146.46 126.348C143.49 124.761 140.342 124.275 137.018 124.89C133.695 125.504 130.862 127.099 128.52 129.674C125.719 132.753 124.404 136.358 124.574 140.491C124.745 144.623 126.369 148.089 129.449 150.89C131.041 152.339 132.85 153.39 134.875 154.043C136.9 154.697 139.013 154.933 141.214 154.753L143.112 154.587L151.393 162.12L148.496 165.305Z" fill="#0B0A0A"/>
</g>
<defs>
<clipPath id="clip0_11_15">
<rect width="52.0023" height="62.005" fill="white" transform="matrix(0.672874 -0.739757 -0.739757 -0.672874 146.7 181.358)"/>
</clipPath>
</defs>
</svg>
