<svg width="16" height="20" viewBox="0 0 16 20" fill="none" xmlns="http://www.w3.org/2000/svg">
<path d="M5.99992 11.5C5.76659 11.5 5.56936 11.4194 5.40825 11.2583C5.24714 11.0972 5.16659 10.9 5.16659 10.6666C5.16659 10.4333 5.24714 10.2361 5.40825 10.075C5.56936 9.91385 5.76659 9.83329 5.99992 9.83329C6.23325 9.83329 6.43047 9.91385 6.59159 10.075C6.7527 10.2361 6.83325 10.4333 6.83325 10.6666C6.83325 10.9 6.7527 11.0972 6.59159 11.2583C6.43047 11.4194 6.23325 11.5 5.99992 11.5ZM9.99992 11.5C9.76659 11.5 9.56936 11.4194 9.40825 11.2583C9.24714 11.0972 9.16659 10.9 9.16659 10.6666C9.16659 10.4333 9.24714 10.2361 9.40825 10.075C9.56936 9.91385 9.76659 9.83329 9.99992 9.83329C10.2333 9.83329 10.4305 9.91385 10.5916 10.075C10.7527 10.2361 10.8333 10.4333 10.8333 10.6666C10.8333 10.9 10.7527 11.0972 10.5916 11.2583C10.4305 11.4194 10.2333 11.5 9.99992 11.5ZM7.99992 15.3333C9.48881 15.3333 10.7499 14.8166 11.7833 13.7833C12.8166 12.75 13.3333 11.4888 13.3333 9.99996C13.3333 9.73329 13.3166 9.47496 13.2833 9.22496C13.2499 8.97496 13.1888 8.73329 13.0999 8.49996C12.8666 8.55551 12.6333 8.59718 12.3999 8.62496C12.1666 8.65274 11.9221 8.66663 11.6666 8.66663C10.6555 8.66663 9.69992 8.44996 8.79992 8.01663C7.89992 7.58329 7.13325 6.97774 6.49992 6.19996C6.14436 7.06663 5.63603 7.8194 4.97492 8.45829C4.31381 9.09718 3.54436 9.57774 2.66659 9.89996C2.66659 9.92218 2.66659 9.93885 2.66659 9.94996C2.66659 9.96107 2.66659 9.97774 2.66659 9.99996C2.66659 11.4888 3.18325 12.75 4.21659 13.7833C5.24992 14.8166 6.51103 15.3333 7.99992 15.3333ZM7.99992 16.6666C7.0777 16.6666 6.21103 16.4916 5.39992 16.1416C4.58881 15.7916 3.88325 15.3166 3.28325 14.7166C2.68325 14.1166 2.20825 13.4111 1.85825 12.6C1.50825 11.7888 1.33325 10.9222 1.33325 9.99996C1.33325 9.07774 1.50825 8.21107 1.85825 7.39996C2.20825 6.58885 2.68325 5.88329 3.28325 5.28329C3.88325 4.68329 4.58881 4.20829 5.39992 3.85829C6.21103 3.50829 7.0777 3.33329 7.99992 3.33329C8.92214 3.33329 9.78881 3.50829 10.5999 3.85829C11.411 4.20829 12.1166 4.68329 12.7166 5.28329C13.3166 5.88329 13.7916 6.58885 14.1416 7.39996C14.4916 8.21107 14.6666 9.07774 14.6666 9.99996C14.6666 10.9222 14.4916 11.7888 14.1416 12.6C13.7916 13.4111 13.3166 14.1166 12.7166 14.7166C12.1166 15.3166 11.411 15.7916 10.5999 16.1416C9.78881 16.4916 8.92214 16.6666 7.99992 16.6666ZM7.09992 4.74996C7.56659 5.52774 8.19992 6.15274 8.99992 6.62496C9.79992 7.09718 10.6888 7.33329 11.6666 7.33329C11.8221 7.33329 11.9721 7.32496 12.1166 7.30829C12.261 7.29163 12.411 7.27218 12.5666 7.24996C12.0999 6.47218 11.4666 5.84718 10.6666 5.37496C9.86659 4.90274 8.9777 4.66663 7.99992 4.66663C7.84436 4.66663 7.69436 4.67496 7.54992 4.69163C7.40547 4.70829 7.25547 4.72774 7.09992 4.74996ZM2.94992 8.31663C3.51659 7.9944 4.01103 7.57774 4.43325 7.06663C4.85547 6.55551 5.17214 5.98329 5.38325 5.34996C4.81659 5.67218 4.32214 6.08885 3.89992 6.59996C3.4777 7.11107 3.16103 7.68329 2.94992 8.31663Z" fill="#0B0A0A"/>
</svg>
