<svg width="16" height="20" viewBox="0 0 16 20" fill="none" xmlns="http://www.w3.org/2000/svg">
<path d="M2.66659 15.3334C2.29992 15.3334 1.98603 15.2028 1.72492 14.9417C1.46381 14.6806 1.33325 14.3667 1.33325 14V6.00004C1.33325 5.63337 1.46381 5.31948 1.72492 5.05837C1.98603 4.79726 2.29992 4.66671 2.66659 4.66671H13.3333C13.6999 4.66671 14.0138 4.79726 14.2749 5.05837C14.536 5.31948 14.6666 5.63337 14.6666 6.00004V14C14.6666 14.3667 14.536 14.6806 14.2749 14.9417C14.0138 15.2028 13.6999 15.3334 13.3333 15.3334H2.66659ZM7.99992 10.6667L2.66659 7.33337V14H13.3333V7.33337L7.99992 10.6667ZM7.99992 9.33337L13.3333 6.00004H2.66659L7.99992 9.33337Z" fill="#0B0A0A"/>
</svg>
