<svg width="16" height="20" viewBox="0 0 16 20" fill="none" xmlns="http://www.w3.org/2000/svg">
<path d="M3.33333 16C2.96667 16 2.65278 15.8694 2.39167 15.6083C2.13056 15.3472 2 15.0333 2 14.6667V5.33333C2 4.96667 2.13056 4.65278 2.39167 4.39167C2.65278 4.13055 2.96667 4 3.33333 4H12.6667C13.0333 4 13.3472 4.13055 13.6083 4.39167C13.8694 4.65278 14 4.96667 14 5.33333V14.6667C14 15.0333 13.8694 15.3472 13.6083 15.6083C13.3472 15.8694 13.0333 16 12.6667 16H3.33333ZM3.33333 14.6667H12.6667V5.33333H3.33333V14.6667ZM4 13.3333H12L9.5 10L7.5 12.6667L6 10.6667L4 13.3333Z" fill="#0B0A0A"/>
</svg>
