<svg width="16" height="20" viewBox="0 0 16 20" fill="none" xmlns="http://www.w3.org/2000/svg">
<path d="M8.00008 8.00004L5.66675 5.66671L8.00008 3.33337L10.3334 5.66671L8.00008 8.00004ZM0.666748 15.3334V12.6667C0.666748 12.2889 0.797304 11.9723 1.05841 11.7167C1.31953 11.4612 1.63341 11.3334 2.00008 11.3334H4.18341C4.40564 11.3334 4.61675 11.3889 4.81675 11.5C5.01675 11.6112 5.17786 11.7612 5.30008 11.95C5.6223 12.3834 6.01953 12.7223 6.49175 12.9667C6.96397 13.2112 7.46675 13.3334 8.00008 13.3334C8.54453 13.3334 9.05286 13.2112 9.52508 12.9667C9.9973 12.7223 10.389 12.3834 10.7001 11.95C10.8445 11.7612 11.014 11.6112 11.2084 11.5C11.4029 11.3889 11.6056 11.3334 11.8167 11.3334H14.0001C14.3779 11.3334 14.6945 11.4612 14.9501 11.7167C15.2056 11.9723 15.3334 12.2889 15.3334 12.6667V15.3334H10.6667V13.8167C10.2779 14.0945 9.85842 14.3056 9.40842 14.45C8.95842 14.5945 8.48897 14.6667 8.00008 14.6667C7.5223 14.6667 7.05564 14.5917 6.60008 14.4417C6.14453 14.2917 5.7223 14.0778 5.33341 13.8V15.3334H0.666748ZM2.66675 10.6667C2.11119 10.6667 1.63897 10.4723 1.25008 10.0834C0.861192 9.69448 0.666748 9.22226 0.666748 8.66671C0.666748 8.10004 0.861192 7.62504 1.25008 7.24171C1.63897 6.85837 2.11119 6.66671 2.66675 6.66671C3.23341 6.66671 3.70841 6.85837 4.09175 7.24171C4.47508 7.62504 4.66675 8.10004 4.66675 8.66671C4.66675 9.22226 4.47508 9.69448 4.09175 10.0834C3.70841 10.4723 3.23341 10.6667 2.66675 10.6667ZM13.3334 10.6667C12.7779 10.6667 12.3056 10.4723 11.9167 10.0834C11.5279 9.69448 11.3334 9.22226 11.3334 8.66671C11.3334 8.10004 11.5279 7.62504 11.9167 7.24171C12.3056 6.85837 12.7779 6.66671 13.3334 6.66671C13.9001 6.66671 14.3751 6.85837 14.7584 7.24171C15.1417 7.62504 15.3334 8.10004 15.3334 8.66671C15.3334 9.22226 15.1417 9.69448 14.7584 10.0834C14.3751 10.4723 13.9001 10.6667 13.3334 10.6667Z" fill="#0B0A0A"/>
</svg>
